<svg width="32" height="26" viewBox="0 0 32 26" fill="none" xmlns="http://www.w3.org/2000/svg">
<path d="M31.9953 3.05882C30.8176 3.59412 29.5482 3.94588 28.2329 4.11412C29.5788 3.30353 30.6188 2.01882 31.1082 0.474118C29.8388 1.23882 28.4318 1.77412 26.9482 2.08C25.74 0.764706 24.0424 0 22.1153 0C18.5212 0 15.5847 2.93647 15.5847 6.56118C15.5847 7.08118 15.6459 7.58588 15.7529 8.06C10.3082 7.78471 5.46 5.16941 2.23294 1.20824C1.66706 2.17176 1.34588 3.30353 1.34588 4.49647C1.34588 6.77529 2.49294 8.79412 4.26706 9.94118C3.18118 9.94118 2.17176 9.63529 1.28471 9.17647V9.22235C1.28471 12.4035 3.54824 15.0647 6.54588 15.6612C5.58347 15.9246 4.57309 15.9612 3.59412 15.7682C4.00952 17.072 4.82306 18.2129 5.92038 19.0304C7.0177 19.8479 8.34362 20.3009 9.71176 20.3259C7.39261 22.1618 4.51788 23.1542 1.56 23.14C1.04 23.14 0.52 23.1094 0 23.0482C2.90588 24.9141 6.36235 26 10.0635 26C22.1153 26 28.7376 15.9976 28.7376 7.32588C28.7376 7.03529 28.7376 6.76 28.7224 6.46941C30.0071 5.55176 31.1082 4.38941 31.9953 3.05882V3.05882Z" fill="#040404"/>
</svg>
